<svg width="24" height="24" viewBox="0 0 24 24" fill="none" xmlns="http://www.w3.org/2000/svg">
<path d="M9 20H6C5.73478 20 5.48043 19.9234 5.29289 19.787C5.10536 19.6506 5 19.4656 5 19.2727V4.72727C5 4.53439 5.10536 4.3494 5.29289 4.21301C5.48043 4.07662 5.73478 4 6 4H9C9.26522 4 9.51957 4.07662 9.70711 4.21301C9.89464 4.3494 10 4.53439 10 4.72727V19.2727C10 19.4656 9.89464 19.6506 9.70711 19.787C9.51957 19.9234 9.26522 20 9 20Z" fill="#828282"/>
<path d="M18 20H15C14.7348 20 14.4804 19.9234 14.2929 19.787C14.1054 19.6506 14 19.4656 14 19.2727V4.72727C14 4.53439 14.1054 4.3494 14.2929 4.21301C14.4804 4.07662 14.7348 4 15 4H18C18.2652 4 18.5196 4.07662 18.7071 4.21301C18.8946 4.3494 19 4.53439 19 4.72727V19.2727C19 19.4656 18.8946 19.6506 18.7071 19.787C18.5196 19.9234 18.2652 20 18 20Z" fill="#828282"/>
</svg>
