<svg width="20" height="20" viewBox="0 0 20 20" fill="none" xmlns="http://www.w3.org/2000/svg">
<path d="M10 9.0625V5.9375" stroke="white" stroke-width="1.4" stroke-linecap="round" stroke-linejoin="round"/>
<path d="M10 3.4375V2.8125" stroke="white" stroke-width="1.4" stroke-linecap="round" stroke-linejoin="round"/>
<path d="M5.15625 5.15625L4.6875 4.6875" stroke="white" stroke-width="1.4" stroke-linecap="round" stroke-linejoin="round"/>
<path d="M10 11.875C10.6904 11.875 11.25 11.3154 11.25 10.625C11.25 9.93464 10.6904 9.375 10 9.375C9.30964 9.375 8.75 9.93464 8.75 10.625C8.75 11.3154 9.30964 11.875 10 11.875Z" stroke="white" stroke-width="1.4" stroke-miterlimit="10"/>
<path d="M9.99988 3.75C8.64013 3.75 7.31092 4.15321 6.18034 4.90865C5.04975 5.66408 4.16856 6.73781 3.64821 7.99405C3.12786 9.25029 2.99171 10.6326 3.25698 11.9662C3.52226 13.2999 4.17704 14.5249 5.13852 15.4864C6.10001 16.4478 7.32502 17.1026 8.65864 17.3679C9.99225 17.6332 11.3746 17.497 12.6308 16.9767C13.8871 16.4563 14.9608 15.5751 15.7162 14.4445C16.4717 13.314 16.8749 11.9847 16.8749 10.625C16.8749 8.80164 16.1506 7.05295 14.8612 5.76364C13.5719 4.47433 11.8232 3.75 9.99988 3.75Z" stroke="white" stroke-width="1.4" stroke-miterlimit="10"/>
</svg>
