<svg width="24" height="24" viewBox="0 0 24 24" fill="none" xmlns="http://www.w3.org/2000/svg">
<path d="M6.23433 20.625C5.94653 20.6244 5.66382 20.549 5.41402 20.4061C4.85152 20.0873 4.50183 19.4686 4.50183 18.7968V5.20309C4.50183 4.52949 4.85152 3.91262 5.41402 3.59387C5.66977 3.44688 5.96031 3.3713 6.25526 3.37501C6.55022 3.37872 6.83876 3.46159 7.09074 3.61496L18.7087 10.5693C18.9508 10.7212 19.1504 10.932 19.2888 11.1821C19.4272 11.4321 19.4997 11.7132 19.4997 11.999C19.4997 12.2848 19.4272 12.5659 19.2888 12.816C19.1504 13.0661 18.9508 13.2769 18.7087 13.4287L7.08886 20.385C6.831 20.5409 6.53565 20.6238 6.23433 20.625Z" fill="#828282"/>
</svg>
